<svg xmlns="http://www.w3.org/2000/svg" width="9" height="12" viewBox="0 0 9 12"><path d="M4.5,2.247A2.25,2.25,0,1,0,6.747,4.5,2.253,2.253,0,0,0,4.5,2.247ZM4.5,6A1.5,1.5,0,1,1,6,4.5,1.5,1.5,0,0,1,4.5,6Zm4.116.384a1.353,1.353,0,0,0,.339-1.286,1.277,1.277,0,0,1,0-1.047,1.352,1.352,0,0,0-.339-1.286,1.256,1.256,0,0,1-.514-.9A1.328,1.328,0,0,0,7.169.912,1.22,1.22,0,0,1,6.285.391,1.315,1.315,0,0,0,5.007.044a1.2,1.2,0,0,1-1.019,0A1.312,1.312,0,0,0,2.71.392a1.221,1.221,0,0,1-.884.52,1.329,1.329,0,0,0-.932.945,1.258,1.258,0,0,1-.514.905A1.352,1.352,0,0,0,.042,4.048a1.277,1.277,0,0,1,0,1.047A1.352,1.352,0,0,0,.381,6.381a1.256,1.256,0,0,1,.514.9,1.326,1.326,0,0,0,.249.478L.026,10.514a.375.375,0,0,0,.347.517l1.25-.048.85.9a.375.375,0,0,0,.62-.116L4.321,8.74a.547.547,0,0,1,.354,0L5.9,11.764a.375.375,0,0,0,.62.116l.85-.9,1.25.048a.375.375,0,0,0,.347-.517L7.851,7.764A1.327,1.327,0,0,0,8.1,7.286a1.258,1.258,0,0,1,.514-.906Zm-6,4.561-.683-.721-.994.038.833-2.05c.019.006.034.018.053.023.513.137.48.108.74.373a1.3,1.3,0,0,0,.843.387Zm5.44-.683-.994-.038-.683.721L5.585,8.987A1.3,1.3,0,0,0,6.429,8.6c.267-.272.23-.239.74-.373.019-.005.035-.017.053-.022l.833,2.05ZM7.375,7.095a.578.578,0,0,1-.4.413,1.667,1.667,0,0,0-1.077.571.552.552,0,0,1-.7.082,1.316,1.316,0,0,0-1.4,0,.555.555,0,0,1-.7-.082,1.685,1.685,0,0,0-1.077-.571.578.578,0,0,1-.4-.413,1.825,1.825,0,0,0-.7-1.239.6.6,0,0,1-.149-.57,1.847,1.847,0,0,0,0-1.428.6.6,0,0,1,.149-.57,1.826,1.826,0,0,0,.7-1.24.576.576,0,0,1,.4-.412A1.788,1.788,0,0,0,3.245.918a.56.56,0,0,1,.546-.15A1.765,1.765,0,0,0,5.2.767.563.563,0,0,1,5.75.917a1.787,1.787,0,0,0,1.222.719.578.578,0,0,1,.4.413,1.825,1.825,0,0,0,.7,1.239.6.6,0,0,1,.149.57,1.847,1.847,0,0,0,0,1.428.6.6,0,0,1-.149.57,1.828,1.828,0,0,0-.7,1.24Z" transform="translate(0.003 0.002)" fill="#101631"/></svg>