<svg xmlns="http://www.w3.org/2000/svg" width="87.956" height="91" viewBox="0 0 87.956 91"><g transform="translate(-3.404)" opacity="0.2"><path d="M88.678,5.328H71.1V2.682a2.682,2.682,0,1,0-5.365,0V5.328H50.064V2.682a2.682,2.682,0,0,0-5.365,0V5.328H29.694V2.682a2.682,2.682,0,0,0-5.365,0V5.328H6.086A2.683,2.683,0,0,0,3.4,8.011V68.622A2.683,2.683,0,0,0,6.086,71.3H22.551a25.5,25.5,0,0,0,49.663,0H88.677a2.683,2.683,0,0,0,2.682-2.682V8.011a2.682,2.682,0,0,0-2.682-2.682ZM24.329,10.693v2.424a2.682,2.682,0,0,0,5.365,0V10.693H44.7v2.424a2.682,2.682,0,0,0,5.365,0V10.693H65.736v2.424a2.682,2.682,0,1,0,5.365,0V10.693H86v10.97H8.769V10.693ZM47.382,85.635A20.142,20.142,0,1,1,67.524,65.493,20.165,20.165,0,0,1,47.382,85.635Zm25.5-19.7c0-.149.011-.3.011-.447a25.507,25.507,0,0,0-51.015,0c0,.15.009.3.011.447H8.769V27.028H85.995V65.94H72.878Z" fill="#fff"/><path d="M101.136,128.637V115.66a2.682,2.682,0,1,0-5.365,0v14.088a2.684,2.684,0,0,0,.786,1.9l6.165,6.166a2.683,2.683,0,0,0,3.794-3.793Z" transform="translate(-51.072 -62.468)" fill="#fff"/></g></svg>