<svg xmlns="http://www.w3.org/2000/svg" width="16.4" height="18.743" viewBox="0 0 16.4 18.743"><path d="M14.643,2.343H12.886V.439A.441.441,0,0,0,12.447,0h-.293a.441.441,0,0,0-.439.439v1.9H4.686V.439A.441.441,0,0,0,4.247,0H3.954a.441.441,0,0,0-.439.439v1.9H1.757A1.758,1.758,0,0,0,0,4.1V16.986a1.758,1.758,0,0,0,1.757,1.757H14.643A1.758,1.758,0,0,0,16.4,16.986V4.1A1.758,1.758,0,0,0,14.643,2.343ZM1.757,3.514H14.643a.587.587,0,0,1,.586.586V5.857H1.171V4.1A.587.587,0,0,1,1.757,3.514ZM14.643,17.572H1.757a.587.587,0,0,1-.586-.586V7.029H15.229v9.957A.587.587,0,0,1,14.643,17.572ZM5.418,11.715H3.954a.441.441,0,0,1-.439-.439V9.811a.441.441,0,0,1,.439-.439H5.418a.441.441,0,0,1,.439.439v1.464A.441.441,0,0,1,5.418,11.715Zm3.514,0H7.468a.441.441,0,0,1-.439-.439V9.811a.441.441,0,0,1,.439-.439H8.932a.441.441,0,0,1,.439.439v1.464A.441.441,0,0,1,8.932,11.715Zm3.514,0H10.982a.441.441,0,0,1-.439-.439V9.811a.441.441,0,0,1,.439-.439h1.464a.441.441,0,0,1,.439.439v1.464A.441.441,0,0,1,12.447,11.715ZM8.932,15.229H7.468a.441.441,0,0,1-.439-.439V13.325a.441.441,0,0,1,.439-.439H8.932a.441.441,0,0,1,.439.439V14.79A.441.441,0,0,1,8.932,15.229Zm-3.514,0H3.954a.441.441,0,0,1-.439-.439V13.325a.441.441,0,0,1,.439-.439H5.418a.441.441,0,0,1,.439.439V14.79A.441.441,0,0,1,5.418,15.229Zm7.029,0H10.982a.441.441,0,0,1-.439-.439V13.325a.441.441,0,0,1,.439-.439h1.464a.441.441,0,0,1,.439.439V14.79A.441.441,0,0,1,12.447,15.229Z" fill="#0b499a"/></svg>