<svg xmlns="http://www.w3.org/2000/svg" width="17.95" height="13.463" viewBox="0 0 17.95 13.463"><path d="M6.451,64.684l5.767,5.75a.421.421,0,0,1,0,.6l-5.767,5.75a.421.421,0,0,1-.6,0l-.249-.249a.421.421,0,0,1,0-.6l4.628-4.607H.421A.422.422,0,0,1,0,70.907v-.351a.422.422,0,0,1,.421-.421h9.813L5.609,65.529a.421.421,0,0,1,0-.6l.249-.249A.417.417,0,0,1,6.451,64.684Zm11.5,11.1v-10.1A1.683,1.683,0,0,0,16.267,64H11.639a.422.422,0,0,0-.421.421v.28a.422.422,0,0,0,.421.421h4.628a.563.563,0,0,1,.561.561v10.1a.563.563,0,0,1-.561.561H11.639a.422.422,0,0,0-.421.421v.28a.422.422,0,0,0,.421.421h4.628A1.683,1.683,0,0,0,17.95,75.78Z" transform="translate(0 -64)" fill="#37b0b0"/></svg>