<svg xmlns="http://www.w3.org/2000/svg" width="52.333" height="52.333" viewBox="0 0 52.333 52.333">
  <path id="times-circle-light" d="M34.167,8A26.167,26.167,0,1,0,60.333,34.167,26.162,26.162,0,0,0,34.167,8Zm0,48.957a22.79,22.79,0,1,1,22.79-22.79A22.789,22.789,0,0,1,34.167,56.957Zm10-30.1-7.312,7.312,7.312,7.312a1.267,1.267,0,0,1,0,1.794l-.9.9a1.267,1.267,0,0,1-1.794,0l-7.312-7.312-7.312,7.312a1.267,1.267,0,0,1-1.794,0l-.9-.9a1.267,1.267,0,0,1,0-1.794l7.312-7.312-7.312-7.312a1.267,1.267,0,0,1,0-1.794l.9-.9a1.267,1.267,0,0,1,1.794,0l7.312,7.312,7.312-7.312a1.267,1.267,0,0,1,1.794,0l.9.9a1.287,1.287,0,0,1,0,1.794Z" transform="translate(-8 -8)" fill="#fff"/>
</svg>
