<svg xmlns="http://www.w3.org/2000/svg" width="308" height="308" viewBox="0 0 308 308">
  <g id="Groupe_252" data-name="Groupe 252" transform="translate(-404 -1616)">
    <g id="Groupe_251" data-name="Groupe 251">
      <g id="Groupe_59" data-name="Groupe 59" transform="translate(0 -4)">
        <rect id="batori1" width="308" height="308" transform="translate(404 1620)" fill="#c2d6ee"/>
      </g>
    </g>
    <g id="Groupe_2" data-name="Groupe 2" transform="translate(-481.899 1103.673)">
      <path id="Tracé_69" data-name="Tracé 69" d="M258.008,62.036v-2.3h35.965a45.392,45.392,0,0,0-2.857-14.712L258.488,58.592l-.881-2.136,32.708-13.59a46.006,46.006,0,0,0-8.6-13.137L257.206,55.521l-1.682-1.6,24.591-25.873a46.165,46.165,0,0,0-13.964-9.372L253.522,51.222l-2.163-.828,12.6-32.574a46.059,46.059,0,0,0-16.02-2.91V51.917h-2.323V15.15a45.791,45.791,0,0,0-14.845,3.177l14.365,34.2L243,53.412,228.717,19.049a46.486,46.486,0,0,0-13.19,9.078l24.885,25.152-1.655,1.629-24.8-25.1a46.352,46.352,0,0,0-8.651,13.35l33.028,13.163-.854,2.163L204.5,45.348a45.6,45.6,0,0,0-2.67,14.472h34.39v2.3H201.75a45.523,45.523,0,0,0,2.83,14.845l32.841-12.789.854,2.163-32.868,12.9a46.3,46.3,0,0,0,9.158,13.8l25.846-25.152,1.6,1.655-25.792,25.1a45.844,45.844,0,0,0,12.015,8.2l14.231-33.429,2.109.908-14.151,33.509a46.272,46.272,0,0,0,15.3,3.364V70.42h2.323v36.873a46.352,46.352,0,0,0,16.5-3.124l-13.137-32.2,2.163-.854,13.137,32.04a47.046,47.046,0,0,0,13.35-8.971L254.937,68.551l1.682-1.6L281.53,92.581a45.95,45.95,0,0,0,8.838-13.35L256.993,64.786l.935-2.136,33.242,14.418A45.79,45.79,0,0,0,294,62.063Z" transform="translate(793.733 603.249)" fill="#fff"/>
      <path id="Tracé_70" data-name="Tracé 70" d="M209.116,4.46l-2.136.881L219.93,36.58l2.136-.908Z" transform="translate(802.467 585.797)" fill="#fff"/>
      <path id="Tracé_71" data-name="Tracé 71" d="M220.513,37.348V1.49H218.19V37.562c.748,0,1.469-.134,2.216-.134Z" transform="translate(821.188 580.837)" fill="#fff"/>
      <path id="Tracé_72" data-name="Tracé 72" d="M239.788,4.678l-2.136-.828-12.6,32.441,2.163.828Z" transform="translate(832.645 584.779)" fill="#fff"/>
      <path id="Tracé_73" data-name="Tracé 73" d="M232.692,36.626l23.069-24.244-1.682-1.6L231.09,34.81C231.651,35.4,232.158,36.065,232.692,36.626Z" transform="translate(842.732 596.352)" fill="#fff"/>
      <path id="Tracé_74" data-name="Tracé 74" d="M236.317,34h33.3V31.7H236.29v1.362C236.29,33.516,236.317,33.7,236.317,34Z" transform="translate(851.416 631.289)" fill="#fff"/>
      <path id="Tracé_75" data-name="Tracé 75" d="M224.713,31.78H188v2.3h36.766V32.928C224.766,32.528,224.686,32.154,224.713,31.78Z" transform="translate(770.77 631.422)" fill="#fff"/>
      <path id="Tracé_76" data-name="Tracé 76" d="M218.19,49.47V84.447h2.323V49.577h0C219.658,49.577,218.938,49.5,218.19,49.47Z" transform="translate(821.188 660.965)" fill="#fff"/>
      <path id="Tracé_77" data-name="Tracé 77" d="M223.908,36.056,198.355,10.21,196.7,11.839l25.632,25.9C222.84,37.177,223.347,36.59,223.908,36.056Z" transform="translate(785.299 595.4)" fill="#fff"/>
      <path id="Tracé_78" data-name="Tracé 78" d="M191.194,20.61l-.854,2.136L223.5,35.963c.267-.721.507-1.469.8-2.189Z" transform="translate(774.678 612.768)" fill="#fff"/>
      <path id="Tracé_79" data-name="Tracé 79" d="M190.34,51.193l.854,2.163,33.269-13c-.32-.694-.561-1.442-.828-2.163Z" transform="translate(774.678 642.127)" fill="#fff"/>
      <path id="Tracé_80" data-name="Tracé 80" d="M221.747,44.18l-24.3,23.55,1.6,1.655L223.4,45.7C222.949,45.275,222.281,44.714,221.747,44.18Z" transform="translate(786.552 652.131)" fill="#fff"/>
      <path id="Tracé_81" data-name="Tracé 81" d="M206.74,79.036l2.136.881,13.137-31.106c-.721-.294-1.415-.614-2.109-.961Z" transform="translate(802.066 658.26)" fill="#fff"/>
      <path id="Tracé_82" data-name="Tracé 82" d="M237.949,80.04l2.136-.881L227.4,48l-2.163.881Z" transform="translate(832.962 658.51)" fill="#fff"/>
      <path id="Tracé_83" data-name="Tracé 83" d="M231,45.669,254.149,69.7l1.682-1.629L232.6,44.04Z" transform="translate(842.581 651.897)" fill="#fff"/>
      <path id="Tracé_84" data-name="Tracé 84" d="M265.458,53.626l.908-2.136L235.741,38.14c-.267.721-.507,1.469-.8,2.163Z" transform="translate(849.161 642.044)" fill="#fff"/>
      <path id="Tracé_85" data-name="Tracé 85" d="M266.523,22.726l-.881-2.136L234.91,33.379c.32.694.561,1.442.828,2.163Z" transform="translate(849.111 612.735)" fill="#fff"/>
      <circle id="Ellipse_2" data-name="Ellipse 2" cx="11.962" cy="11.962" r="11.962" transform="translate(1029.633 651.935)" fill="#fff"/>
    </g>
  </g>
</svg>
