<svg xmlns="http://www.w3.org/2000/svg" width="17" height="17" viewBox="0 0 17 17">
  <path id="envelope-square-light" d="M15.179,32H1.821A1.821,1.821,0,0,0,0,33.821V47.179A1.821,1.821,0,0,0,1.821,49H15.179A1.821,1.821,0,0,0,17,47.179V33.821A1.821,1.821,0,0,0,15.179,32Zm.607,15.179a.608.608,0,0,1-.607.607H1.821a.608.608,0,0,1-.607-.607V33.821a.608.608,0,0,1,.607-.607H15.179a.608.608,0,0,1,.607.607ZM13.357,35.643H3.643a1.214,1.214,0,0,0-1.214,1.214v7.286a1.214,1.214,0,0,0,1.214,1.214h9.714a1.214,1.214,0,0,0,1.214-1.214V36.857A1.214,1.214,0,0,0,13.357,35.643Zm0,1.214v1.285c-.536.441-1.388,1.126-3.116,2.5-.4.316-1.181,1.075-1.731,1.075H8.49c-.55,0-1.335-.758-1.731-1.075-1.728-1.372-2.58-2.056-3.116-2.5V36.857ZM3.643,44.143V39.707c.535.431,1.276,1.023,2.361,1.884A4.4,4.4,0,0,0,8.49,42.929H8.51A4.4,4.4,0,0,0,11,41.59c1.085-.861,1.825-1.452,2.36-1.883v4.436Z" transform="translate(0 -32)" fill="#37b0b0"/>
</svg>
