<svg xmlns="http://www.w3.org/2000/svg" width="50" height="44.444" viewBox="0 0 50 44.444">
  <g id="Groupe_1117" data-name="Groupe 1117" transform="translate(-812 -974)">
    <rect id="Rectangle_79" data-name="Rectangle 79" width="50" height="44.444" transform="translate(812 974)" fill="#848484"/>
    <g id="envelope4" transform="translate(823.75 987.909)">
      <path id="Tracé_3" data-name="Tracé 3" d="M37.481,21.9q.491.346,2.957,2.056t3.779,2.632q.144.1.613.44t.779.548q.31.209.75.469a4.359,4.359,0,0,0,.83.389,2.287,2.287,0,0,0,.721.13h.029a2.287,2.287,0,0,0,.721-.13,4.365,4.365,0,0,0,.83-.389q.44-.26.75-.469t.779-.548q.469-.339.613-.44,1.327-.923,6.751-4.688a6.856,6.856,0,0,0,1.76-1.774,3.809,3.809,0,0,0,.707-2.178,2.328,2.328,0,0,0-2.308-2.308H37.308a2.06,2.06,0,0,0-1.709.75,2.912,2.912,0,0,0-.6,1.875,3.369,3.369,0,0,0,.793,1.969A7.162,7.162,0,0,0,37.481,21.9Z" transform="translate(-35 -15.643)" fill="#fff"/>
      <path id="Tracé_4" data-name="Tracé 4" d="M59.408,53.887q-4.731,3.2-7.184,4.977-.822.606-1.334.945a8.235,8.235,0,0,1-1.363.692,4.155,4.155,0,0,1-1.587.353h-.029a4.156,4.156,0,0,1-1.587-.353,8.241,8.241,0,0,1-1.363-.692q-.512-.339-1.334-.945-1.948-1.428-7.169-4.977A7.647,7.647,0,0,1,35,52.632V64.086a2.315,2.315,0,0,0,2.308,2.308H58.543a2.315,2.315,0,0,0,2.308-2.308V52.632A7.96,7.96,0,0,1,59.408,53.887Z" transform="translate(-35 -46.083)" fill="#fff"/>
    </g>
  </g>
</svg>
