<svg xmlns="http://www.w3.org/2000/svg" width="21.703" height="18.99" viewBox="0 0 21.703 18.99"><path d="M21.364,46.921H8.139v-1.7a1.015,1.015,0,0,0-1.017-1.017H5.087a1.015,1.015,0,0,0-1.017,1.017v1.7H.339A.34.34,0,0,0,0,47.26v.678a.34.34,0,0,0,.339.339h3.73v1.7A1.015,1.015,0,0,0,5.087,50.99H7.121a1.015,1.015,0,0,0,1.017-1.017v-1.7H21.364a.34.34,0,0,0,.339-.339V47.26A.34.34,0,0,0,21.364,46.921ZM6.782,49.634H5.426V45.564H6.782ZM21.364,34.713H10.852v-1.7A1.015,1.015,0,0,0,9.834,32H7.8a1.015,1.015,0,0,0-1.017,1.017v1.7H.339A.34.34,0,0,0,0,35.052v.678a.34.34,0,0,0,.339.339H6.782v1.7A1.015,1.015,0,0,0,7.8,38.782H9.834a1.015,1.015,0,0,0,1.017-1.017v-1.7H21.364a.34.34,0,0,0,.339-.339v-.678A.34.34,0,0,0,21.364,34.713ZM9.5,37.426H8.139V33.356H9.5Zm11.869,3.391h-3.73v-1.7A1.015,1.015,0,0,0,16.616,38.1H14.582a1.015,1.015,0,0,0-1.017,1.017v1.7H.339A.34.34,0,0,0,0,41.156v.678a.34.34,0,0,0,.339.339H13.564v1.7a1.015,1.015,0,0,0,1.017,1.017h2.035a1.015,1.015,0,0,0,1.017-1.017v-1.7h3.73a.34.34,0,0,0,.339-.339v-.678A.34.34,0,0,0,21.364,40.817ZM16.277,43.53H14.921V39.46h1.356Z" transform="translate(0 -32)" fill="#37b0b0"/></svg>