<svg xmlns="http://www.w3.org/2000/svg" xmlns:xlink="http://www.w3.org/1999/xlink"  viewBox="0 0 20.29 20.285"><path d="M10.072,36.767a5.2,5.2,0,1,0,5.2,5.2A5.193,5.193,0,0,0,10.072,36.767Zm0,8.582a3.381,3.381,0,1,1,3.381-3.381,3.387,3.387,0,0,1-3.381,3.381ZM16.7,36.554a1.213,1.213,0,1,1-1.213-1.213A1.21,1.21,0,0,1,16.7,36.554Zm3.445,1.231a6,6,0,0,0-1.639-4.25,6.043,6.043,0,0,0-4.25-1.639c-1.675-.1-6.695-.1-8.369,0a6.034,6.034,0,0,0-4.25,1.634A6.023,6.023,0,0,0,0,37.781c-.1,1.675-.1,6.695,0,8.369A6,6,0,0,0,1.635,50.4a6.05,6.05,0,0,0,4.25,1.639c1.675.1,6.695.1,8.369,0A6,6,0,0,0,18.5,50.4a6.043,6.043,0,0,0,1.639-4.25C20.238,44.475,20.238,39.46,20.143,37.785ZM17.98,47.947a3.423,3.423,0,0,1-1.928,1.928c-1.335.53-4.5.407-5.979.407s-4.649.118-5.979-.407a3.423,3.423,0,0,1-1.928-1.928c-.53-1.335-.407-4.5-.407-5.979s-.118-4.649.407-5.979A3.423,3.423,0,0,1,4.093,34.06c1.335-.53,4.5-.407,5.979-.407s4.649-.118,5.979.407a3.423,3.423,0,0,1,1.928,1.928c.53,1.335.407,4.5.407,5.979S18.509,46.616,17.98,47.947Z" transform="translate(0.075 -31.825)" fill="#ffffff"
/></svg>