<svg xmlns="http://www.w3.org/2000/svg" width="35.268" height="27.43" viewBox="0 0 35.268 27.43"><path d="M32.329,32H6.858a2.939,2.939,0,0,0-2.939,2.939v.98h-.98A2.939,2.939,0,0,0,0,38.858V56.491A2.939,2.939,0,0,0,2.939,59.43H28.41a2.939,2.939,0,0,0,2.939-2.939v-.98h.98a2.939,2.939,0,0,0,2.939-2.939V34.939A2.939,2.939,0,0,0,32.329,32ZM29.39,56.491a.981.981,0,0,1-.98.98H2.939a.981.981,0,0,1-.98-.98V38.858a.981.981,0,0,1,.98-.98h.98V52.573a2.939,2.939,0,0,0,2.939,2.939H29.39Zm3.919-3.919a.981.981,0,0,1-.98.98H6.858a.981.981,0,0,1-.98-.98V34.939a.981.981,0,0,1,.98-.98H32.329a.981.981,0,0,1,.98.98ZM10.776,42.286a3.429,3.429,0,1,0-3.429-3.429A3.429,3.429,0,0,0,10.776,42.286Zm0-4.9a1.469,1.469,0,1,1-1.469,1.469A1.471,1.471,0,0,1,10.776,37.388ZM25.53,38.8a1.469,1.469,0,0,0-2.078,0l-5.819,5.819-1.9-1.9a1.469,1.469,0,0,0-2.078,0L8.268,48.1a1.47,1.47,0,0,0-.43,1.039v1.714a.735.735,0,0,0,.735.735H30.614a.735.735,0,0,0,.735-.735V45.225a1.47,1.47,0,0,0-.43-1.039ZM29.39,49.634H9.8v-.287l4.9-4.9,2.939,2.939,6.858-6.858,4.9,4.9Z" transform="translate(0 -32)" fill="#30358c"/></svg>