<svg xmlns="http://www.w3.org/2000/svg" width="15.044" height="15.044" viewBox="0 0 15.044 15.044"><path d="M15.044,7.516a.727.727,0,0,0-.434-.67L11.679,5.574,14.609,4.3a.734.734,0,0,0,0-1.34L7.99.092a1.17,1.17,0,0,0-.936,0L.435,2.963a.734.734,0,0,0,0,1.34l2.93,1.272L.435,6.846a.734.734,0,0,0,0,1.34l2.93,1.271L.435,10.728a.734.734,0,0,0,0,1.34l6.62,2.872a1.171,1.171,0,0,0,.934,0l6.62-2.872a.734.734,0,0,0,0-1.34l-2.93-1.271,2.929-1.271a.727.727,0,0,0,.435-.67ZM1.329,3.634,7.441.981h0a.2.2,0,0,1,.16,0l6.112,2.652L7.6,6.286a.2.2,0,0,1-.161,0ZM13.715,11.4,7.6,14.05a.2.2,0,0,1-.161,0L1.329,11.4,4.583,9.986l2.471,1.072a1.171,1.171,0,0,0,.934,0L10.46,9.986ZM7.6,10.168a.2.2,0,0,1-.161,0L1.329,7.516,4.584,6.1,7.055,7.176a1.171,1.171,0,0,0,.934,0L10.46,6.1l3.255,1.412L7.6,10.168Z" transform="translate(0 0.006)"/></svg>