<svg xmlns="http://www.w3.org/2000/svg" xmlns:xlink="http://www.w3.org/1999/xlink" width="19.133" height="18.286" viewBox="0 0 19.133 18.286"><defs><linearGradient id="a" x1="0.5" x2="0.5" y2="1" gradientUnits="objectBoundingBox"><stop offset="0" stop-color="#37b0b0"/><stop offset="1" stop-color="#064999"/></linearGradient></defs><g transform="translate(-45.429 -13.199)"><rect width="4.111" height="12.344" transform="translate(45.666 19.141)" fill="url(#a)"/><path d="M99.913,51.6a4.424,4.424,0,0,0-3.425-1.414,4.939,4.939,0,0,0-1.426.193,3.237,3.237,0,0,0-1.084.542,4.641,4.641,0,0,0-1.19,1.307V50.475h-4.1l.013.6q.013.6.013,3.687T88.69,62.82h4.1V55.931a3.011,3.011,0,0,1,.137-1.009,2.647,2.647,0,0,1,.791-1.065,2.017,2.017,0,0,1,1.314-.43,1.772,1.772,0,0,1,1.576.741,3.6,3.6,0,0,1,.5,2.049v6.6h4.1V55.744A5.931,5.931,0,0,0,99.913,51.6Z" transform="translate(-36.647 -31.335)" fill="url(#a)"/><path d="M47.746,13.2a2.345,2.345,0,0,0-1.675.6,2.006,2.006,0,0,0-.642,1.526,2.041,2.041,0,0,0,.623,1.52,2.248,2.248,0,0,0,1.644.61h.025a2.347,2.347,0,0,0,1.688-.61,1.972,1.972,0,0,0,.629-1.52A2.078,2.078,0,0,0,49.4,13.8,2.278,2.278,0,0,0,47.746,13.2Z" fill="url(#a)"/></g></svg>