<svg xmlns="http://www.w3.org/2000/svg" width="50" height="44.444" viewBox="0 0 50 44.444">
  <g id="Groupe_1116" data-name="Groupe 1116" transform="translate(-741 -974)">
    <rect id="Rectangle_80" data-name="Rectangle 80" width="50" height="44.444" transform="translate(741 974)" fill="#1da1f2"/>
    <g id="linkedin10" transform="translate(753.59 984.149)">
      <rect id="Rectangle_83" data-name="Rectangle 83" width="5.459" height="16.394" transform="translate(0.314 7.891)" fill="#fff"/>
      <path id="Tracé_1" data-name="Tracé 1" d="M103.6,52.067a5.875,5.875,0,0,0-4.549-1.878,6.56,6.56,0,0,0-1.894.256,4.3,4.3,0,0,0-1.439.72,6.164,6.164,0,0,0-1.58,1.735V50.569H88.69l.017.794q.017.794.017,4.9t-.033,10.7h5.443V57.815a4,4,0,0,1,.182-1.34,3.515,3.515,0,0,1,1.051-1.414,2.679,2.679,0,0,1,1.745-.571,2.354,2.354,0,0,1,2.093.984,4.787,4.787,0,0,1,.67,2.721v8.768h5.443v-9.4A7.877,7.877,0,0,0,103.6,52.067Z" transform="translate(-79.906 -42.678)" fill="#fff"/>
      <path id="Tracé_2" data-name="Tracé 2" d="M48.506,13.2a3.114,3.114,0,0,0-2.225.8,2.664,2.664,0,0,0-.852,2.026,2.711,2.711,0,0,0,.827,2.018,2.986,2.986,0,0,0,2.184.811h.033a3.117,3.117,0,0,0,2.242-.811,2.619,2.619,0,0,0,.835-2.018A2.759,2.759,0,0,0,50.706,14,3.025,3.025,0,0,0,48.506,13.2Z" transform="translate(-45.429 -13.199)" fill="#fff"/>
    </g>
  </g>
</svg>
