<svg xmlns="http://www.w3.org/2000/svg" width="16.22" height="17.572" viewBox="0 0 16.22 17.572">
  <g transform="translate(-45.428 -5.214)">
    <path  data-name="Tracé 224" d="M98.923,14.676a1.371,1.371,0,0,0,1.352-1.352V6.566a1.352,1.352,0,0,0-2.7,0v6.759a1.37,1.37,0,0,0,1.352,1.352Z" transform="translate(-45.385)" fill="#fff"/>
    <path id="Tracé_225" data-name="Tracé 225" d="M60.8,29.261a7.955,7.955,0,0,0-2.392-2.851,1.311,1.311,0,0,0-1-.264,1.252,1.252,0,0,0-.887.528,1.285,1.285,0,0,0-.259,1,1.314,1.314,0,0,0,.523.892,5.391,5.391,0,0,1,1.6,1.911,5.385,5.385,0,0,1,.137,4.5,5.355,5.355,0,0,1-2.883,2.883,5.349,5.349,0,0,1-4.192,0,5.354,5.354,0,0,1-2.883-2.883,5.384,5.384,0,0,1,.137-4.5,5.393,5.393,0,0,1,1.6-1.911,1.316,1.316,0,0,0,.523-.892,1.285,1.285,0,0,0-.259-1,1.248,1.248,0,0,0-.882-.528,1.335,1.335,0,0,0-1.009.264,8.062,8.062,0,0,0-2.6,9.62,8.012,8.012,0,0,0,4.319,4.319,8.005,8.005,0,0,0,6.294,0A8.011,8.011,0,0,0,61,36.03a7.891,7.891,0,0,0,.644-3.147A7.989,7.989,0,0,0,60.8,29.261Z" transform="translate(0 -18.207)" fill="#fff"/>
  </g>
</svg>
