<svg xmlns="http://www.w3.org/2000/svg" xmlns:xlink="http://www.w3.org/1999/xlink" width="243.993" height="89.332" viewBox="0 0 243.993 89.332"><defs><linearGradient id="a" x1="0.5" y1="0.886" x2="0.5" y2="0.015" gradientUnits="objectBoundingBox"><stop offset="0" stop-color="#0d297b"/><stop offset="0.146" stop-color="#064687"/><stop offset="0.275" stop-color="#015890"/><stop offset="0.366" stop-color="#005f93"/><stop offset="0.644" stop-color="#1f9096"/><stop offset="0.856" stop-color="#59b0ae"/><stop offset="1" stop-color="#93c7c8"/></linearGradient></defs><g transform="translate(-28.065 -54.485)"><path d="M131.885,121.451a10.71,10.71,0,0,1-4.457.963c-4.485,0-7.456-3.054-7.456-7.649,0-4.649,2.971-7.758,7.4-7.758a8.473,8.473,0,0,1,4.072,1.073V101.5l3.852-1.1v21.872A6.594,6.594,0,0,1,131.885,121.451Zm-3.467-2.064a8.05,8.05,0,0,0,3.026-.715v-7.648a5.907,5.907,0,0,0-3.109-.991c-2.641,0-4.374,1.871-4.374,4.705C123.961,117.516,125.667,119.387,128.418,119.387Z" fill="#33a3a1"/><path d="M148.553,121.478a11.809,11.809,0,0,1-4.6.936c-3.411,0-5.474-1.706-5.474-4.622s2.228-4.622,6.052-4.622a11.569,11.569,0,0,1,3.494.578v-.881c0-1.788-1.211-2.834-3.329-2.834a20.144,20.144,0,0,0-5.007.716v-2.807a17.239,17.239,0,0,1,5.8-.935c4.017,0,6.383,2.036,6.383,5.5v9.766A7.17,7.17,0,0,1,148.553,121.478Zm-3.054-1.815a6.78,6.78,0,0,0,2.531-.5V116.2a6.3,6.3,0,0,0-2.531-.522c-1.871,0-3.026.742-3.026,2.035C142.473,118.947,143.628,119.663,145.5,119.663Z" fill="#33a3a1"/><path d="M165.029,119.25v2.834a18.112,18.112,0,0,1-3.3.33,4.752,4.752,0,0,1-5.09-4.98v-7.4h-2.146v-2.751h2.146v-3.246l3.851-1.1v4.347h4.4v2.751h-4.4v6.8a2.377,2.377,0,0,0,2.477,2.558A17.414,17.414,0,0,0,165.029,119.25Z" fill="#33a3a1"/><path d="M176.968,121.478a11.809,11.809,0,0,1-4.6.936c-3.411,0-5.474-1.706-5.474-4.622s2.228-4.622,6.052-4.622a11.569,11.569,0,0,1,3.494.578v-.881c0-1.788-1.21-2.834-3.329-2.834a20.13,20.13,0,0,0-5.006.716v-2.807a17.229,17.229,0,0,1,5.8-.935c4.017,0,6.383,2.036,6.383,5.5v9.766A7.17,7.17,0,0,1,176.968,121.478Zm-3.054-1.815a6.776,6.776,0,0,0,2.531-.5V116.2a6.3,6.3,0,0,0-2.531-.522c-1.871,0-3.026.742-3.026,2.035C170.888,118.947,172.043,119.663,173.914,119.663Z" fill="#33a3a1"/><path d="M192.591,110.033c-3.054,0-5.09,1.871-5.09,4.678s2.064,4.676,5.172,4.676a12.886,12.886,0,0,0,3.715-.687v2.833a13.759,13.759,0,0,1-4.952.881c-4.733,0-7.924-3.082-7.924-7.7s3.191-7.7,7.924-7.7a13.858,13.858,0,0,1,4.676.88v2.834A10.136,10.136,0,0,0,192.591,110.033Z" fill="#33a3a1"/><path d="M212.781,116.086H202.574c.276,2.174,1.322,3.3,4.265,3.3a19.784,19.784,0,0,0,5.034-.825v2.833a17.338,17.338,0,0,1-5.915,1.019c-4.429,0-7.373-2.669-7.373-7.594,0-4.677,2.889-7.813,7.181-7.813,4.264,0,7.153,3,7.153,7.483A13.843,13.843,0,0,1,212.781,116.086Zm-10.234-2.476h6.438c-.248-2.228-1.293-3.686-3.219-3.686S202.768,111.382,202.547,113.61Z" fill="#33a3a1"/><path d="M230.661,112.812v9.326H226.81v-9c0-2.063-1.157-3.109-3.3-3.109a7.559,7.559,0,0,0-3.44.908v11.2h-3.851V107.144a6.671,6.671,0,0,1,3.686.963,14.113,14.113,0,0,1,5.173-1.1C228.6,107.007,230.661,108.85,230.661,112.812Z" fill="#33a3a1"/><path d="M243.835,119.25v2.834a18.114,18.114,0,0,1-3.3.33,4.753,4.753,0,0,1-5.09-4.98v-7.4H233.3v-2.751h2.145v-3.246l3.852-1.1v4.347h4.4v2.751h-4.4v6.8a2.376,2.376,0,0,0,2.477,2.558A17.414,17.414,0,0,0,243.835,119.25Z" fill="#33a3a1"/><path d="M259.955,116.086H249.748c.276,2.174,1.321,3.3,4.265,3.3a19.791,19.791,0,0,0,5.034-.825v2.833a17.343,17.343,0,0,1-5.915,1.019c-4.429,0-7.373-2.669-7.373-7.594,0-4.677,2.889-7.813,7.181-7.813,4.264,0,7.153,3,7.153,7.483A13.837,13.837,0,0,1,259.955,116.086Zm-10.234-2.476h6.437c-.247-2.228-1.293-3.686-3.218-3.686S249.942,111.382,249.721,113.61Z" fill="#33a3a1"/><path d="M267.242,111.271v10.867h-3.851V107.144a6.681,6.681,0,0,1,3.521.881,12.555,12.555,0,0,1,5.146-1.018v3.631A16.243,16.243,0,0,0,267.242,111.271Z" fill="#33a3a1"/><path d="M125.918,84.611h6.465v4.034h-6.465v6.84h-4.91V76.944h12.727V81h-7.817Z" fill="#161f4a"/><path d="M154.26,95.485h-5.638a51.633,51.633,0,0,0-5.963-8.845,6.7,6.7,0,0,0,1.98.251c1.7,0,2.631-1.178,2.631-2.957A2.615,2.615,0,0,0,144.639,81h-2.656V95.485h-4.911V76.944h8.068c4.309,0,7.216,2.581,7.216,6.464a6.2,6.2,0,0,1-2.505,5.187A65.308,65.308,0,0,1,154.26,95.485Z" fill="#161f4a"/><path d="M168.823,93.129h-7.566c-.376.8-.727,1.579-1.077,2.356h-5.237c3.107-6.264,6.74-13.28,9.972-18.791h.25c3.207,5.511,6.865,12.527,9.972,18.791H169.9C169.55,94.708,169.2,93.931,168.823,93.129Zm-3.783-8.192c-.7,1.378-1.453,2.781-2.13,4.159h4.26C166.493,87.718,165.741,86.315,165.04,84.937Z" fill="#161f4a"/><path d="M184.889,87.918l-2.731-2.28.075,9.847h-4.911V76.694c1.654,0,6.715,4.284,11.075,7.966l2.58,2.156-.075-9.872h4.911V95.736C194.159,95.736,189.224,91.551,184.889,87.918Z" fill="#161f4a"/><path d="M210.728,80.752c-3.784,0-6.264,2.18-6.264,5.462s2.581,5.462,6.439,5.462a13.194,13.194,0,0,0,3.934-.626v3.758a17.219,17.219,0,0,1-5.562.928c-5.938,0-9.872-3.809-9.872-9.522s3.883-9.52,9.721-9.52a15.862,15.862,0,0,1,5.462.952V81.4A11.879,11.879,0,0,0,210.728,80.752Z" fill="#161f4a"/><path d="M232.1,95.485h-13.73V76.944h13.555V81h-8.645V84.11H231v4.034h-7.718v3.282h8.82Z" fill="#161f4a"/><path d="M66.748,54.485l-9.682,5.59v78.152l9.682,5.59Z" fill="#101628"/><path d="M66.748,143.817l38.683-22.333V76.818L66.748,54.485Z" fill="url(#a)"/><path d="M50.905,63.631,40.9,69.41v59.481l10.01,5.779Z" fill="#101628"/><path d="M36.275,72.078l-8.21,4.74v44.666l8.21,4.74Z" fill="#101628"/></g></svg>