<svg xmlns="http://www.w3.org/2000/svg" width="41.661" height="42.689" viewBox="0 0 41.661 42.689">
  <g id="Groupe_291" data-name="Groupe 291" transform="translate(-0.001)">
    <path id="Union_1" data-name="Union 1" d="M-5211.374-15344.549l-16.481-16.484c-.047-.048-.092-.1-.133-.147a13.845,13.845,0,0,1-7.725,2.341,13.9,13.9,0,0,1-13.906-13.905,13.908,13.908,0,0,1,13.906-13.909,13.911,13.911,0,0,1,13.909,13.909,13.843,13.843,0,0,1-3.217,8.893l16.477,16.474a2,2,0,0,1,0,2.83,2,2,0,0,1-1.417.584A1.993,1.993,0,0,1-5211.374-15344.549Zm-34.244-28.2a9.915,9.915,0,0,0,9.905,9.9,9.918,9.918,0,0,0,9.909-9.9,9.92,9.92,0,0,0-9.909-9.909A9.917,9.917,0,0,0-5245.618-15372.745Z" transform="translate(5249.62 15386.654)" fill="#173a65"/>
  </g>
</svg>
