<svg xmlns="http://www.w3.org/2000/svg" width="11.6" height="15.466" viewBox="0 0 11.6 15.466"><path d="M5.8,2.9A2.9,2.9,0,1,0,8.7,5.8,2.9,2.9,0,0,0,5.8,2.9Zm0,4.833A1.933,1.933,0,1,1,7.733,5.8,1.935,1.935,0,0,1,5.8,7.733ZM5.8,0A5.8,5.8,0,0,0,0,5.8c0,2.338.815,2.991,5.2,9.354a.725.725,0,0,0,1.192,0c4.389-6.363,5.2-7.016,5.2-9.354A5.8,5.8,0,0,0,5.8,0Zm0,14.316C1.592,8.231.967,7.748.967,5.8A4.833,4.833,0,0,1,9.217,2.382,4.8,4.8,0,0,1,10.633,5.8C10.633,7.748,10.008,8.231,5.8,14.316Z" fill="#101631"/></svg>