<svg xmlns="http://www.w3.org/2000/svg" width="26" height="34.673" viewBox="0 0 26 34.673"><path d="M25.045,6.535,19.365.855a3.25,3.25,0,0,0-2.3-.955H3.25A3.261,3.261,0,0,0,0,3.157V31.323a3.251,3.251,0,0,0,3.25,3.25h19.5A3.251,3.251,0,0,0,26,31.323V8.837a3.266,3.266,0,0,0-.955-2.3Zm-1.53,1.537a1.065,1.065,0,0,1,.284.5H17.333V2.107a1.065,1.065,0,0,1,.5.284ZM22.75,32.407H3.25a1.087,1.087,0,0,1-1.083-1.083V3.157A1.087,1.087,0,0,1,3.25,2.073H15.167V9.115a1.621,1.621,0,0,0,1.625,1.625h7.042V31.323A1.087,1.087,0,0,1,22.75,32.407ZM19.5,15.886v.542a.815.815,0,0,1-.812.813H7.312a.815.815,0,0,1-.812-.812v-.542a.815.815,0,0,1,.812-.813H18.687A.815.815,0,0,1,19.5,15.886Zm0,4.333v.542a.815.815,0,0,1-.812.813H7.312a.815.815,0,0,1-.812-.812v-.542a.815.815,0,0,1,.812-.812H18.687A.815.815,0,0,1,19.5,20.219Zm0,4.333v.542a.815.815,0,0,1-.812.813H7.312a.815.815,0,0,1-.812-.812v-.542a.815.815,0,0,1,.812-.812H18.687A.815.815,0,0,1,19.5,24.553Z" transform="translate(0 0.1)" fill="#0b499a"/></svg>