<svg xmlns="http://www.w3.org/2000/svg" width="14.308" height="16.352" viewBox="0 0 14.308 16.352"><path d="M7.154,13.412a.641.641,0,0,1-.639-.639V10.73a.639.639,0,0,1,1.277,0v2.044A.641.641,0,0,1,7.154,13.412Zm7.154-4.727v6.132a1.533,1.533,0,0,1-1.533,1.533H1.533A1.533,1.533,0,0,1,0,14.818V8.686A1.533,1.533,0,0,1,1.533,7.153h.511V5.109a5.11,5.11,0,1,1,10.22.048v2h.511A1.533,1.533,0,0,1,14.308,8.686ZM3.066,7.153h8.176V5.109a4.088,4.088,0,0,0-8.176,0Zm10.22,7.665V8.686a.512.512,0,0,0-.511-.511H1.533a.512.512,0,0,0-.511.511v6.132a.512.512,0,0,0,.511.511H12.775A.512.512,0,0,0,13.286,14.818Z" transform="translate(0 0.001)" fill="#37b0b0"/></svg>