<?xml version="1.0" encoding="UTF-8" standalone="no"?>
<svg
   xmlns:dc="http://purl.org/dc/elements/1.1/"
   xmlns:cc="http://creativecommons.org/ns#"
   xmlns:rdf="http://www.w3.org/1999/02/22-rdf-syntax-ns#"
   xmlns:svg="http://www.w3.org/2000/svg"
   xmlns="http://www.w3.org/2000/svg"
   xmlns:sodipodi="http://sodipodi.sourceforge.net/DTD/sodipodi-0.dtd"
   xmlns:inkscape="http://www.inkscape.org/namespaces/inkscape"
   width="162.263"
   height="163.08501"
   viewBox="0 0 162.263 163.08501"
   version="1.1"
   id="svg26"
   sodipodi:docname="sunrise-white.svg"
   inkscape:version="0.92.3 (2405546, 2018-03-11)">
  <metadata
     id="metadata30">
    <rdf:RDF>
      <cc:Work
         rdf:about="">
        <dc:format>image/svg+xml</dc:format>
        <dc:type
           rdf:resource="http://purl.org/dc/dcmitype/StillImage" />
        <dc:title></dc:title>
      </cc:Work>
    </rdf:RDF>
  </metadata>
  <sodipodi:namedview
     pagecolor="#ffffff"
     bordercolor="#666666"
     borderopacity="1"
     objecttolerance="10"
     gridtolerance="10"
     guidetolerance="10"
     inkscape:pageopacity="0"
     inkscape:pageshadow="2"
     inkscape:window-width="1920"
     inkscape:window-height="986"
     id="namedview28"
     showgrid="false"
     inkscape:pagecheckerboard="true"
     fit-margin-top="0"
     fit-margin-left="0"
     fit-margin-right="0"
     fit-margin-bottom="0"
     inkscape:zoom="1.1955421"
     inkscape:cx="49.434133"
     inkscape:cy="147.22283"
     inkscape:window-x="-11"
     inkscape:window-y="-11"
     inkscape:window-maximized="1"
     inkscape:current-layer="svg26" />
  <defs
     id="defs4">
    <clipPath
       id="clip-path">
      <path
         id="aerial-view-of-misty-mountains-at-sunrise-picture-id1195458582"
         d="M 0,20 H 1390 V 703.761 L 695,809.6 0,703.761 Z"
         transform="translate(25,126)"
         inkscape:connector-curvature="0"
         style="fill:#173a65" />
    </clipPath>
  </defs>
  <g
     id="Groupe_de_masques_2"
     data-name="Groupe de masques 2"
     transform="translate(-638.871,-714.972)"
     clip-path="url(#clip-path)">
    <g
       id="Groupe_2"
       data-name="Groupe 2"
       transform="translate(-319.899,132.645)">
      <path
         id="Tracé_69"
         data-name="Tracé 69"
         d="m 258.008,62.036 v -2.3 h 35.965 a 45.392,45.392 0 0 0 -2.857,-14.712 l -32.628,13.568 -0.881,-2.136 32.708,-13.59 a 46.006,46.006 0 0 0 -8.6,-13.137 l -24.509,25.792 -1.682,-1.6 24.591,-25.873 a 46.165,46.165 0 0 0 -13.964,-9.372 l -12.629,32.546 -2.163,-0.828 12.6,-32.574 a 46.059,46.059 0 0 0 -16.02,-2.91 v 37.007 h -2.323 V 15.15 a 45.791,45.791 0 0 0 -14.845,3.177 l 14.365,34.2 L 243,53.412 228.717,19.049 a 46.486,46.486 0 0 0 -13.19,9.078 l 24.885,25.152 -1.655,1.629 -24.8,-25.1 a 46.352,46.352 0 0 0 -8.651,13.35 l 33.028,13.163 -0.854,2.163 -32.98,-13.136 a 45.6,45.6 0 0 0 -2.67,14.472 h 34.39 v 2.3 h -34.47 a 45.523,45.523 0 0 0 2.83,14.845 l 32.841,-12.789 0.854,2.163 -32.868,12.9 a 46.3,46.3 0 0 0 9.158,13.8 l 25.846,-25.152 1.6,1.655 -25.792,25.1 a 45.844,45.844 0 0 0 12.015,8.2 l 14.231,-33.429 2.109,0.908 -14.151,33.509 a 46.272,46.272 0 0 0 15.3,3.364 V 70.42 h 2.323 v 36.873 a 46.352,46.352 0 0 0 16.5,-3.124 l -13.137,-32.2 2.163,-0.854 13.137,32.04 a 47.046,47.046 0 0 0 13.35,-8.971 l -25.122,-25.633 1.682,-1.6 24.911,25.63 a 45.95,45.95 0 0 0 8.838,-13.35 L 256.993,64.786 257.928,62.65 291.17,77.068 A 45.79,45.79 0 0 0 294,62.063 Z"
         transform="translate(793.733,603.249)"
         inkscape:connector-curvature="0"
         style="fill:#173A65" />
      <path
         id="Tracé_70"
         data-name="Tracé 70"
         d="m 209.116,4.46 -2.136,0.881 12.95,31.239 2.136,-0.908 z"
         transform="translate(802.467,585.797)"
         inkscape:connector-curvature="0"
         style="fill:#173A65" />
      <path
         id="Tracé_71"
         data-name="Tracé 71"
         d="M 220.513,37.348 V 1.49 h -2.323 v 36.072 c 0.748,0 1.469,-0.134 2.216,-0.134 z"
         transform="translate(821.188,580.837)"
         inkscape:connector-curvature="0"
         style="fill:#173A65" />
      <path
         id="Tracé_72"
         data-name="Tracé 72"
         d="m 239.788,4.678 -2.136,-0.828 -12.6,32.441 2.163,0.828 z"
         transform="translate(832.645,584.779)"
         inkscape:connector-curvature="0"
         style="fill:#173A65" />
      <path
         id="Tracé_73"
         data-name="Tracé 73"
         d="m 232.692,36.626 23.069,-24.244 -1.682,-1.6 -22.989,24.028 c 0.561,0.59 1.068,1.255 1.602,1.816 z"
         transform="translate(842.732,596.352)"
         inkscape:connector-curvature="0"
         style="fill:#173A65" />
      <path
         id="Tracé_74"
         data-name="Tracé 74"
         d="m 236.317,34 h 33.3 V 31.7 H 236.29 v 1.362 c 0,0.454 0.027,0.638 0.027,0.938 z"
         transform="translate(851.416,631.289)"
         inkscape:connector-curvature="0"
         style="fill:#173A65" />
      <path
         id="Tracé_75"
         data-name="Tracé 75"
         d="M 224.713,31.78 H 188 v 2.3 h 36.766 v -1.152 c 0,-0.4 -0.08,-0.774 -0.053,-1.148 z"
         transform="translate(770.77,631.422)"
         inkscape:connector-curvature="0"
         style="fill:#173A65" />
      <path
         id="Tracé_76"
         data-name="Tracé 76"
         d="m 218.19,49.47 v 34.977 h 2.323 v -34.87 0 c -0.855,0 -1.575,-0.077 -2.323,-0.107 z"
         transform="translate(821.188,660.965)"
         inkscape:connector-curvature="0"
         style="fill:#173A65" />
      <path
         id="Tracé_77"
         data-name="Tracé 77"
         d="m 223.908,36.056 -25.553,-25.846 -1.655,1.629 25.632,25.9 c 0.508,-0.562 1.015,-1.149 1.576,-1.683 z"
         transform="translate(785.299,595.4)"
         inkscape:connector-curvature="0"
         style="fill:#173A65" />
      <path
         id="Tracé_78"
         data-name="Tracé 78"
         d="m 191.194,20.61 -0.854,2.136 33.16,13.217 c 0.267,-0.721 0.507,-1.469 0.8,-2.189 z"
         transform="translate(774.678,612.768)"
         inkscape:connector-curvature="0"
         style="fill:#173A65" />
      <path
         id="Tracé_79"
         data-name="Tracé 79"
         d="m 190.34,51.193 0.854,2.163 33.269,-13 c -0.32,-0.694 -0.561,-1.442 -0.828,-2.163 z"
         transform="translate(774.678,642.127)"
         inkscape:connector-curvature="0"
         style="fill:#173A65" />
      <path
         id="Tracé_80"
         data-name="Tracé 80"
         d="m 221.747,44.18 -24.3,23.55 1.6,1.655 L 223.4,45.7 c -0.451,-0.425 -1.119,-0.986 -1.653,-1.52 z"
         transform="translate(786.552,652.131)"
         inkscape:connector-curvature="0"
         style="fill:#173A65" />
      <path
         id="Tracé_81"
         data-name="Tracé 81"
         d="m 206.74,79.036 2.136,0.881 13.137,-31.106 c -0.721,-0.294 -1.415,-0.614 -2.109,-0.961 z"
         transform="translate(802.066,658.26)"
         inkscape:connector-curvature="0"
         style="fill:#173A65" />
      <path
         id="Tracé_82"
         data-name="Tracé 82"
         d="M 237.949,80.04 240.085,79.159 227.4,48 l -2.163,0.881 z"
         transform="translate(832.962,658.51)"
         inkscape:connector-curvature="0"
         style="fill:#173A65" />
      <path
         id="Tracé_83"
         data-name="Tracé 83"
         d="M 231,45.669 254.149,69.7 255.831,68.071 232.6,44.04 Z"
         transform="translate(842.581,651.897)"
         inkscape:connector-curvature="0"
         style="fill:#173A65" />
      <path
         id="Tracé_84"
         data-name="Tracé 84"
         d="m 265.458,53.626 0.908,-2.136 -30.625,-13.35 c -0.267,0.721 -0.507,1.469 -0.8,2.163 z"
         transform="translate(849.161,642.044)"
         inkscape:connector-curvature="0"
         style="fill:#173A65" />
      <path
         id="Tracé_85"
         data-name="Tracé 85"
         d="M 266.523,22.726 265.642,20.59 234.91,33.379 c 0.32,0.694 0.561,1.442 0.828,2.163 z"
         transform="translate(849.111,612.735)"
         inkscape:connector-curvature="0"
         style="fill:#173A65" />
      <circle
         id="Ellipse_2"
         data-name="Ellipse 2"
         cx="11.962"
         cy="11.962"
         r="11.962"
         transform="translate(1029.633,651.935)"
         style="fill:#173A65" />
    </g>
  </g>
</svg>
