<svg xmlns="http://www.w3.org/2000/svg" width="17" height="17" viewBox="0 0 17 17">
  <path id="phone-square-alt-light" d="M15.179,32H1.821A1.821,1.821,0,0,0,0,33.821V47.179A1.821,1.821,0,0,0,1.821,49H15.179A1.821,1.821,0,0,0,17,47.179V33.821A1.821,1.821,0,0,0,15.179,32Zm.607,15.179a.607.607,0,0,1-.607.607H1.821a.607.607,0,0,1-.607-.607V33.821a.607.607,0,0,1,.607-.607H15.179a.607.607,0,0,1,.607.607ZM13.893,42.2,11.5,41.178a1.124,1.124,0,0,0-1.307.32l-.749.916a8.57,8.57,0,0,1-2.86-2.86L7.5,38.8a1.125,1.125,0,0,0,.32-1.307L6.8,35.107a1.211,1.211,0,0,0-1.029-.678,1.343,1.343,0,0,0-.252.029l-2.22.512a1.114,1.114,0,0,0-.867,1.091A10.506,10.506,0,0,0,12.94,46.571,1.114,1.114,0,0,0,14.03,45.7l.512-2.22A1.119,1.119,0,0,0,13.893,42.2Zm-1.029,3.154a9.293,9.293,0,0,1-9.221-9.221l2.068-.477.967,2.251-1.6,1.313a8.6,8.6,0,0,0,4.705,4.705l1.31-1.607,2.252.965Z" transform="translate(0 -32)" fill="#37b0b0"/>
</svg>
