<?xml version="1.0" encoding="utf-8"?>
<!-- Generator: Adobe Illustrator 26.2.1, SVG Export Plug-In . SVG Version: 6.00 Build 0)  -->
<svg version="1.1" id="Calque_1" xmlns="http://www.w3.org/2000/svg" xmlns:xlink="http://www.w3.org/1999/xlink" x="0px" y="0px"
	 viewBox="0 0 299.3 94.4" style="enable-background:new 0 0 299.3 94.4;" xml:space="preserve">
<style type="text/css">
	.st0{fill:#173A65;}
	.st1{fill:#19AE93;}
	.st2{fill:#FFFFFF;}
	.st3{fill:#18AD92;}
</style>
<g>
	<path class="st0" d="M20.1,46.7c0,1.4-0.9,2.1-2.6,2.1c-1.7,0-2.5-0.7-2.5-2.1V18.7H7.5c-1,0-1.6-0.7-1.6-2.2
		c0-1.4,0.5-2.1,1.6-2.1h20.1c1.1,0,1.6,0.7,1.5,2.1c0,1.5-0.5,2.2-1.5,2.2h-7.5V46.7z"/>
	<path class="st0" d="M38,46.6c0,1.4-0.9,2.1-2.6,2.1c-1.7,0-2.5-0.7-2.5-2.1V16.2c0-1.4,0.8-2.1,2.5-2.1c1.7,0,2.6,0.7,2.6,2.1
		V46.6z M48,30.7c0,1-0.3,1.8-1,2.5c-0.7,0.7-1.5,1-2.5,1c-1,0-1.8-0.3-2.5-1c-0.7-0.7-1-1.5-1-2.5c0-1,0.3-1.8,1-2.5
		c0.7-0.7,1.5-1,2.5-1c1,0,1.8,0.3,2.5,1C47.7,28.9,48,29.7,48,30.7 M51,16.2c0-1.4,0.8-2.1,2.5-2.1c1.7,0,2.6,0.7,2.6,2.1v30.3
		c0,1.4-0.9,2.1-2.6,2.1c-1.7,0-2.5-0.7-2.5-2.1V16.2z"/>
	<path class="st0" d="M65.1,48.4c-1.1,0-1.8-0.3-2.1-0.8c-0.4-0.5-0.6-1.1-0.6-1.8V17c0-0.7,0.2-1.2,0.6-1.8
		c0.4-0.5,1.1-0.8,2.1-0.8H80c1.1,0,1.6,0.7,1.7,2.1c0.1,1.5-0.5,2.2-1.7,2.2H67.5v25.4h13.3c1.1,0,1.6,0.7,1.6,2.1
		c0.1,1.5-0.5,2.2-1.6,2.2H65.1z M78.4,30.7c0,1-0.4,1.8-1,2.5c-0.7,0.7-1.5,1-2.5,1c-1,0-1.8-0.3-2.5-1c-0.7-0.7-1-1.5-1-2.5
		c0-1,0.3-1.8,1-2.5c0.7-0.7,1.5-1,2.5-1c1,0,1.8,0.3,2.5,1C78.1,28.9,78.4,29.7,78.4,30.7"/>
	<path class="st0" d="M116.1,28.8c0.7,0,1.5,0.2,2.3,0.5c0.8,0.3,1.6,0.7,2.3,1.2h0c0.7,0.5,1.3,1.2,1.7,2.1c0.4,0.9,0.6,1.9,0.6,3
		v5.9c0,2.3-0.8,4-2.3,5.2c-0.7,0.5-1.5,1-2.3,1.3c-0.8,0.3-1.5,0.4-2.3,0.4h-9.3c-0.7,0-1.5-0.1-2.3-0.4c-0.8-0.3-1.5-0.7-2.3-1.3
		c-1.5-1.1-2.3-2.9-2.3-5.2v-2.8c0-1.3,0.8-2,2.5-2c1.7,0,2.6,0.7,2.6,2v2.5c0,0.7,0.2,1.4,0.6,2c0.4,0.6,1.2,0.9,2.2,0.9h7.2
		c1.1,0,1.8-0.3,2.2-0.9c0.4-0.6,0.6-1.3,0.6-2V36c0-0.7-0.2-1.4-0.6-2c-0.4-0.6-1.2-0.9-2.2-0.9h-8.3c-1.5,0-3-0.5-4.6-1.6
		c-1.5-1.2-2.3-2.9-2.3-5.2v-5.1c0-1.1,0.2-2.1,0.6-3c0.4-0.9,1-1.6,1.7-2.1h0c0.7-0.5,1.5-0.9,2.3-1.2c0.8-0.3,1.6-0.5,2.3-0.5h9.3
		c0.7,0,1.5,0.2,2.3,0.5c0.8,0.3,1.6,0.7,2.3,1.2h0c0.7,0.5,1.3,1.2,1.7,2.1c0.4,0.9,0.6,1.9,0.6,3v2.5c0,1.3-0.9,2-2.6,2
		c-1.7,0-2.5-0.7-2.5-2v-2.1c0-0.7-0.2-1.4-0.6-2c-0.4-0.6-1.2-0.9-2.2-0.9h-7.2c-1.1,0-1.8,0.3-2.2,0.9c-0.4,0.6-0.6,1.3-0.6,2V26
		c0,0.7,0.2,1.4,0.6,2c0.4,0.6,1.2,0.9,2.2,0.9H116.1z"/>
	<path class="st0" d="M209.5,41.5c0,2.3-0.8,4-2.3,5.2c-0.7,0.5-1.5,1-2.3,1.3c-0.8,0.3-1.5,0.4-2.3,0.4h-9.3
		c-0.7,0-1.5-0.1-2.3-0.4c-0.8-0.3-1.5-0.7-2.3-1.3c-0.7-0.6-1.3-1.3-1.7-2.1c-0.4-0.8-0.6-1.9-0.6-3.1V16.2c0-1.4,0.8-2.1,2.5-2.1
		c1.7,0,2.6,0.7,2.6,2.1v24.9c0,0.7,0.2,1.4,0.6,2c0.4,0.6,1.2,0.9,2.2,0.9h7.2c1.1,0,1.8-0.3,2.2-0.9c0.4-0.6,0.6-1.3,0.6-2V16.2
		c0-1.4,0.8-2.1,2.5-2.1c1.7,0,2.6,0.7,2.6,2.1V41.5z"/>
	<path class="st0" d="M218.8,47.9L218.8,47.9c-0.4,0.6-0.9,0.9-1.5,0.9c-0.5,0-1-0.2-1.7-0.6v0c-1-0.6-1.5-1.3-1.5-2
		c0-0.1,0-0.3,0.1-0.6c0.1-0.2,0.2-0.4,0.3-0.6l6.8-11.3c-0.4-0.2-0.7-0.4-1.1-0.6c-0.4-0.2-0.7-0.4-1-0.6c-1.5-1.1-2.3-2.9-2.3-5.2
		v-6.2c0-1.1,0.2-2.1,0.6-3c0.4-0.9,1-1.6,1.7-2.1h0c0.7-0.5,1.5-0.9,2.3-1.2c0.8-0.3,1.6-0.5,2.3-0.5h12.4c0.7,0,1.4,0.2,1.9,0.5
		c0.5,0.3,0.8,1,0.8,2.1v29.6c0,1.4-0.8,2.1-2.5,2.1c-1.7,0-2.5-0.7-2.5-2.1V18.7h-9c-1.1,0-1.8,0.3-2.2,0.9c-0.4,0.6-0.6,1.3-0.6,2
		v5.5c0,0.7,0.2,1.4,0.6,2c0.4,0.6,1.2,0.9,2.2,0.9h5c1.2,0,1.8,0.7,1.8,2.2c0,0.7-0.1,1.2-0.4,1.6c-0.3,0.4-0.6,0.6-1.1,0.6h-3.3
		L218.8,47.9z"/>
	<path class="st0" d="M267.9,41.5c0,2.3-0.8,4-2.3,5.2c-0.7,0.5-1.5,1-2.3,1.3c-0.8,0.3-1.5,0.4-2.3,0.4h-9.3
		c-0.7,0-1.5-0.1-2.3-0.4c-0.8-0.3-1.5-0.7-2.3-1.3c-0.7-0.6-1.3-1.3-1.7-2.1c-0.4-0.8-0.6-1.9-0.6-3.1V21.2c0-1.1,0.2-2.1,0.6-3
		c0.4-0.9,1-1.6,1.7-2.1h0c0.7-0.5,1.5-0.9,2.3-1.2c0.8-0.3,1.6-0.5,2.3-0.5h9.3c0.7,0,1.5,0.2,2.3,0.5c0.8,0.3,1.6,0.7,2.3,1.2h0
		c0.7,0.5,1.3,1.2,1.7,2.1c0.4,0.9,0.6,1.9,0.6,3v3c0,1.4-0.9,2.1-2.6,2.1c-1.7,0-2.5-0.7-2.5-2.1v-2.6c0-0.7-0.2-1.4-0.6-2
		c-0.4-0.6-1.2-0.9-2.2-0.9h-7.2c-1.1,0-1.8,0.3-2.2,0.9c-0.4,0.6-0.6,1.3-0.6,2v19.6c0,0.7,0.2,1.4,0.6,2c0.4,0.6,1.2,0.9,2.2,0.9
		h7.2c1.1,0,1.8-0.3,2.2-0.9c0.4-0.6,0.6-1.3,0.6-2v-2.5c0-1.3,0.8-2,2.5-2c1.7,0,2.6,0.7,2.6,2V41.5z"/>
	<path class="st0" d="M276.8,48.4c-1.1,0-1.8-0.3-2.1-0.8c-0.4-0.5-0.6-1.1-0.6-1.8V17c0-0.7,0.2-1.2,0.6-1.8
		c0.4-0.5,1.1-0.8,2.1-0.8h14.9c1.1,0,1.6,0.7,1.7,2.1c0.1,1.5-0.5,2.2-1.7,2.2h-12.5v25.4h13.3c1.1,0,1.6,0.7,1.6,2.1
		c0.1,1.5-0.5,2.2-1.6,2.2H276.8z M290.1,30.7c0,1-0.4,1.8-1,2.5c-0.7,0.7-1.5,1-2.5,1c-1,0-1.8-0.3-2.5-1c-0.7-0.7-1-1.5-1-2.5
		c0-1,0.3-1.8,1-2.5c0.7-0.7,1.5-1,2.5-1c1,0,1.8,0.3,2.5,1C289.8,28.9,290.1,29.7,290.1,30.7"/>
	<path class="st0" d="M158.7,32v-0.8h11.8c-0.1-1.7-0.4-3.3-0.9-4.8l-10.7,4.5l-0.3-0.7l10.7-4.5c-0.7-1.6-1.7-3-2.8-4.3l-8,8.5
		l-0.5-0.5l8.1-8.5c-1.3-1.3-2.9-2.3-4.6-3.1l-4.1,10.7l-0.7-0.3l4.1-10.7c-1.6-0.6-3.4-1-5.2-1v12.1h-0.8V16.5
		c-1.7,0.1-3.4,0.4-4.9,1l4.7,11.3l-0.7,0.3l-4.7-11.3c-1.6,0.7-3.1,1.7-4.3,3l8.2,8.2l-0.5,0.5l-8.1-8.2c-1.2,1.3-2.2,2.8-2.8,4.4
		l10.8,4.3l-0.3,0.7l-10.8-4.3c-0.5,1.5-0.8,3.1-0.9,4.7h11.3V32h-11.3c0,1.7,0.4,3.3,0.9,4.9l10.8-4.2l0.3,0.7l-10.8,4.2
		c0.7,1.7,1.8,3.2,3,4.5l8.5-8.2l0.5,0.5l-8.5,8.2c1.2,1.1,2.5,2,3.9,2.7l4.6-11l0.7,0.3l-4.6,11c1.6,0.6,3.3,1,5,1.1V34.7h0.8v12.1
		c1.9,0,3.7-0.4,5.4-1l-4.3-10.6l0.7-0.3l4.3,10.6c1.6-0.7,3.1-1.7,4.4-2.9l-8.2-8.5l0.5-0.5l8.2,8.5c1.2-1.3,2.2-2.8,2.9-4.4
		l-10.9-4.7l0.3-0.7l10.9,4.7c0.6-1.5,0.9-3.2,0.9-4.9H158.7z"/>
	<path class="st1" d="M145.5,7.4l-0.7,0.3l4.3,10.2c0.2-0.1,0.5-0.2,0.7-0.3L145.5,7.4z"/>
	<path class="st1" d="M155.4,16.5V4.8h-0.8v11.8C154.9,16.5,155.1,16.5,155.4,16.5C155.4,16.5,155.4,16.5,155.4,16.5"/>
	<path class="st1" d="M165.5,7.1l-0.7-0.3l-4.1,10.6c0.2,0.1,0.5,0.2,0.7,0.3L165.5,7.1z"/>
	<path class="st1" d="M166.5,21.4l7.6-8l-0.5-0.5l-7.5,7.9C166.1,21,166.3,21.2,166.5,21.4"/>
	<path class="st1" d="M170.5,32h10.9v-0.8h-10.9c0,0.2,0,0.3,0,0.4C170.5,31.8,170.5,31.9,170.5,32"/>
	<path class="st1" d="M140.3,31.3h-12.1V32h12.1c0-0.1,0-0.3,0-0.4C140.2,31.5,140.3,31.4,140.3,31.3"/>
	<path class="st1" d="M154.7,46.8v11.5h0.8V46.8c0,0,0,0,0,0C155.1,46.8,154.9,46.8,154.7,46.8"/>
	<path class="st1" d="M144.8,20.9l-8.4-8.5l-0.5,0.5l8.4,8.5C144.4,21.2,144.6,21,144.8,20.9"/>
	<path class="st1" d="M130.6,21.5l-0.3,0.7l10.9,4.3c0.1-0.2,0.2-0.5,0.3-0.7L130.6,21.5z"/>
	<path class="st1" d="M130.3,41.2l0.3,0.7l10.9-4.3c-0.1-0.2-0.2-0.5-0.3-0.7L130.3,41.2z"/>
	<path class="st1" d="M144.5,42.1l-8,7.8l0.5,0.5l8-7.8C144.8,42.5,144.6,42.3,144.5,42.1"/>
	<path class="st1" d="M144.6,55.6l0.7,0.3l4.3-10.2c-0.2-0.1-0.5-0.2-0.7-0.3L144.6,55.6z"/>
	<path class="st1" d="M165,55.9l0.7-0.3l-4.2-10.2c-0.2,0.1-0.5,0.2-0.7,0.3L165,55.9z"/>
	<path class="st1" d="M165.9,42.5l7.6,7.9l0.5-0.5l-7.6-7.9C166.2,42.2,166.1,42.4,165.9,42.5"/>
	<path class="st1" d="M179.3,41.9l0.3-0.7l-10-4.3c-0.1,0.2-0.2,0.5-0.3,0.7L179.3,41.9z"/>
	<path class="st1" d="M179.7,22.2l-0.3-0.7l-10.1,4.2c0.1,0.2,0.2,0.5,0.3,0.7L179.7,22.2z"/>
	<path class="st2" d="M155.4,27.6c2.2,0,3.9,1.8,3.9,3.9c0,2.2-1.8,3.9-3.9,3.9c-2.2,0-3.9-1.8-3.9-3.9
		C151.5,29.3,153.2,27.6,155.4,27.6"/>
	<polygon class="st3" points="36.6,83.8 35.3,83.8 35.3,65.1 31.3,65.1 31.3,63.8 40.6,63.8 40.6,65.1 36.6,65.1 	"/>
	<path class="st3" d="M50.2,83.8V73.6c0-1.3-0.2-2.3-0.5-2.9c-0.4-0.6-0.9-0.8-1.7-0.8c-1,0-1.8,0.5-2.4,1.4
		c-0.5,0.9-0.8,2.4-0.8,4.4v8.1h-1.3V62.6h1.3v6.9c0,0.6,0,1.2-0.1,1.6h0.1c0.3-0.7,0.7-1.3,1.3-1.7c0.6-0.4,1.2-0.6,1.8-0.6
		c1.3,0,2.2,0.4,2.7,1.2c0.5,0.8,0.8,2,0.8,3.7v10.2H50.2z"/>
	<path class="st3" d="M60.3,84.1c-1.6,0-2.8-0.7-3.6-2c-0.8-1.3-1.3-3.2-1.3-5.6c0-2.5,0.4-4.5,1.1-5.8c0.8-1.3,1.8-2,3.2-2
		c1.2,0,2.2,0.6,2.9,1.8c0.7,1.2,1.1,2.8,1.1,4.7v1.2h-7c0,2.2,0.3,3.8,0.9,4.9c0.6,1.1,1.5,1.6,2.7,1.6c0.9,0,1.9-0.3,2.9-0.9v1.3
		C62.4,83.8,61.4,84.1,60.3,84.1 M59.7,69.9c-1.8,0-2.8,1.8-2.9,5.3h5.7c0-1.6-0.2-2.9-0.7-3.9C61.3,70.4,60.6,69.9,59.7,69.9"/>
	<path class="st3" d="M82.1,76.4c0,2.5-0.4,4.4-1.2,5.7c-0.8,1.3-1.9,2-3.4,2c-1.4,0-2.6-0.7-3.3-2c-0.8-1.3-1.2-3.2-1.2-5.7
		c0-5.1,1.5-7.7,4.5-7.7c1.4,0,2.5,0.7,3.3,2C81.7,72.1,82.1,73.9,82.1,76.4 M74.4,76.4c0,2.1,0.3,3.8,0.8,4.9
		c0.5,1.1,1.3,1.6,2.4,1.6c2.1,0,3.2-2.2,3.2-6.5c0-4.3-1.1-6.4-3.2-6.4c-1.1,0-1.9,0.5-2.4,1.6C74.7,72.6,74.4,74.2,74.4,76.4"/>
	<path class="st3" d="M90.2,68.7c0.5,0,0.9,0.1,1.3,0.2l-0.3,1.3c-0.3-0.1-0.7-0.2-1-0.2c-0.5,0-1,0.3-1.4,0.8
		c-0.4,0.5-0.8,1.2-1,2.2c-0.2,0.9-0.4,1.9-0.4,3v7.9h-1.3V69h1.1l0.1,2.6h0.1C88.1,69.7,89,68.7,90.2,68.7"/>
	<path class="st3" d="M94.2,64.9c0-0.4,0.1-0.7,0.3-1c0.2-0.2,0.4-0.3,0.6-0.3c0.2,0,0.4,0.1,0.6,0.3c0.1,0.2,0.2,0.5,0.2,1
		c0,0.4-0.1,0.7-0.2,0.9c-0.1,0.2-0.3,0.3-0.6,0.3c-0.3,0-0.5-0.1-0.6-0.3C94.3,65.6,94.2,65.3,94.2,64.9 M95.7,83.8h-1.3V69h1.3
		V83.8z"/>
	<path class="st3" d="M108.1,69v0.9l-2,0.2c0.3,0.4,0.5,0.9,0.7,1.5c0.2,0.7,0.3,1.3,0.3,2c0,1.4-0.3,2.6-1,3.5
		c-0.7,0.9-1.5,1.3-2.6,1.3h-0.3l-0.3,0c-0.4,0.3-0.8,0.6-1,0.9c-0.3,0.3-0.4,0.7-0.4,1.1c0,0.4,0.2,0.7,0.5,1
		c0.3,0.2,0.8,0.3,1.3,0.3h0.9c1.3,0,2.3,0.3,3.1,1c0.7,0.7,1.1,1.7,1.1,3c0,1.4-0.5,2.6-1.5,3.4c-1,0.8-2.3,1.3-3.9,1.3
		c-1.3,0-2.4-0.3-3.1-1c-0.7-0.7-1.1-1.7-1.1-2.9c0-0.9,0.2-1.7,0.7-2.4c0.5-0.7,1.2-1.2,2.2-1.6c-0.5-0.2-0.8-0.5-1.1-0.8
		c-0.3-0.4-0.4-0.8-0.4-1.3c0-0.4,0.1-0.8,0.4-1.2c0.3-0.4,0.7-0.7,1.3-1.1c-0.8-0.3-1.3-0.9-1.7-1.7c-0.4-0.8-0.6-1.7-0.6-2.7
		c0-1.6,0.3-2.8,1-3.7c0.7-0.9,1.6-1.4,2.7-1.4c0.6,0,1.1,0.1,1.6,0.3H108.1z M100.2,86.5c0,0.9,0.2,1.7,0.7,2.2
		c0.5,0.5,1.2,0.8,2.2,0.8c1.2,0,2.2-0.3,2.9-1s1.1-1.5,1.1-2.6c0-0.9-0.2-1.6-0.7-2.1s-1.2-0.7-2.1-0.7h-1c-0.9,0-1.6,0.3-2.2,0.9
		C100.5,84.7,100.2,85.5,100.2,86.5 M101,73.8c0,1.2,0.2,2.1,0.7,2.8c0.4,0.6,1,0.9,1.8,0.9c1.6,0,2.4-1.3,2.4-3.8
		c0-1.2-0.2-2.2-0.6-2.9c-0.4-0.7-1-1-1.8-1c-0.8,0-1.4,0.4-1.8,1.1C101.2,71.6,101,72.6,101,73.8"/>
	<path class="st3" d="M111,64.9c0-0.4,0.1-0.7,0.3-1c0.2-0.2,0.4-0.3,0.6-0.3c0.2,0,0.4,0.1,0.6,0.3c0.1,0.2,0.2,0.5,0.2,1
		c0,0.4-0.1,0.7-0.2,0.9c-0.1,0.2-0.3,0.3-0.6,0.3c-0.3,0-0.5-0.1-0.6-0.3C111.1,65.6,111,65.3,111,64.9 M112.5,83.8h-1.3V69h1.3
		V83.8z"/>
	<path class="st3" d="M123.9,83.8V73.6c0-2.5-0.7-3.7-2.2-3.7c-1.1,0-1.9,0.5-2.4,1.4c-0.5,0.9-0.8,2.4-0.8,4.4v8.1h-1.3V69h1.1
		l0.1,2.1h0.1c0.3-0.7,0.8-1.3,1.3-1.7s1.2-0.6,1.9-0.6c1.1,0,2,0.4,2.6,1.2c0.6,0.8,0.9,2,0.9,3.7v10.3H123.9z"/>
	<path class="st3" d="M144.1,76.4c0,2.5-0.4,4.4-1.2,5.7c-0.8,1.3-1.9,2-3.4,2c-1.4,0-2.6-0.7-3.3-2c-0.8-1.3-1.2-3.2-1.2-5.7
		c0-5.1,1.5-7.7,4.5-7.7c1.4,0,2.5,0.7,3.3,2C143.7,72.1,144.1,73.9,144.1,76.4 M136.4,76.4c0,2.1,0.3,3.8,0.8,4.9
		c0.5,1.1,1.3,1.6,2.4,1.6c2.1,0,3.2-2.2,3.2-6.5c0-4.3-1.1-6.4-3.2-6.4c-1.1,0-1.9,0.5-2.4,1.6C136.6,72.6,136.4,74.2,136.4,76.4"
		/>
	<path class="st3" d="M151.8,70.1h-2.3v13.7h-1.3V70.1h-1.9v-0.7l1.9-0.6v-1.1c0-1.9,0.2-3.2,0.7-4.1c0.4-0.8,1.2-1.2,2.3-1.2
		c0.6,0,1.2,0.1,1.7,0.3l-0.5,1.2c-0.5-0.2-0.9-0.3-1.3-0.3c-0.4,0-0.8,0.1-1,0.4c-0.2,0.3-0.4,0.7-0.5,1.3
		c-0.1,0.6-0.2,1.4-0.2,2.5V69h2.3V70.1z"/>
	<path class="st3" d="M165.1,84.1c-1.6,0-2.8-0.7-3.6-2c-0.8-1.3-1.3-3.2-1.3-5.6c0-2.5,0.4-4.5,1.1-5.8c0.8-1.3,1.8-2,3.2-2
		c1.2,0,2.2,0.6,2.9,1.8c0.7,1.2,1.1,2.8,1.1,4.7v1.2h-7c0,2.2,0.3,3.8,0.9,4.9c0.6,1.1,1.5,1.6,2.7,1.6c0.9,0,1.9-0.3,2.9-0.9v1.3
		C167.2,83.8,166.2,84.1,165.1,84.1 M164.5,69.9c-1.8,0-2.8,1.8-2.9,5.3h5.7c0-1.6-0.2-2.9-0.7-3.9
		C166.1,70.4,165.4,69.9,164.5,69.9"/>
	<polygon class="st3" points="174.6,76.1 171.4,69 172.8,69 175.3,75 177.9,69 179.2,69 175.9,76.3 179.4,83.8 178,83.8 175.2,77.4 
		172.4,83.8 171.1,83.8 	"/>
	<path class="st3" d="M186.3,84.1c-1.5,0-2.6-0.6-3.4-1.9c-0.8-1.3-1.1-3.2-1.1-5.7c0-2.5,0.4-4.5,1.1-5.8c0.8-1.3,1.9-2,3.4-2
		c0.9,0,1.7,0.2,2.3,0.5l-0.5,1.1c-0.6-0.3-1.2-0.4-1.7-0.4c-2.2,0-3.3,2.2-3.3,6.5c0,4.3,1.1,6.5,3.3,6.5c0.6,0,1.3-0.1,2.1-0.4
		v1.1c-0.3,0.2-0.7,0.3-1.1,0.4C187,84.1,186.7,84.1,186.3,84.1"/>
	<path class="st3" d="M196.1,84.1c-1.6,0-2.8-0.7-3.6-2c-0.8-1.3-1.3-3.2-1.3-5.6c0-2.5,0.4-4.5,1.1-5.8c0.8-1.3,1.8-2,3.2-2
		c1.2,0,2.2,0.6,2.9,1.8c0.7,1.2,1.1,2.8,1.1,4.7v1.2h-7c0,2.2,0.3,3.8,0.9,4.9c0.6,1.1,1.5,1.6,2.7,1.6c0.9,0,1.9-0.3,2.9-0.9v1.3
		C198.2,83.8,197.2,84.1,196.1,84.1 M195.5,69.9c-1.8,0-2.8,1.8-2.9,5.3h5.7c0-1.6-0.2-2.9-0.7-3.9
		C197.1,70.4,196.4,69.9,195.5,69.9"/>
	<path class="st3" d="M208.4,84.1c-0.7,0-1.4-0.2-2-0.6c-0.6-0.4-1.1-1-1.4-1.7h-0.1l0.1,1.6v7.1h-1.3V69h1.1l0.1,2h0.1
		c0.4-0.7,0.8-1.3,1.4-1.7c0.6-0.4,1.2-0.6,1.9-0.6c2.9,0,4.3,2.6,4.3,7.7c0,2.5-0.4,4.4-1.1,5.7S209.7,84.1,208.4,84.1 M208.1,69.9
		c-1.1,0-1.9,0.5-2.4,1.4c-0.5,1-0.8,2.5-0.8,4.5v0.4c0,2.3,0.3,4,0.8,5c0.5,1.1,1.4,1.6,2.5,1.6c1,0,1.8-0.5,2.3-1.6
		c0.5-1.1,0.7-2.7,0.7-5c0-2.1-0.2-3.8-0.7-4.8C210,70.5,209.2,69.9,208.1,69.9"/>
	<path class="st3" d="M219.2,82.9c0.4,0,0.8-0.1,1.1-0.2v1.1c-0.4,0.2-0.9,0.3-1.5,0.3c-1.5,0-2.3-1.1-2.3-3.4V70.1h-1.3v-0.8
		l1.3-0.4l0.4-3.5h0.9V69h2.4v1.1h-2.4v10.2c0,1,0.1,1.7,0.3,2.1C218.3,82.7,218.7,82.9,219.2,82.9"/>
	<path class="st3" d="M223.1,64.9c0-0.4,0.1-0.7,0.3-1c0.2-0.2,0.4-0.3,0.6-0.3c0.2,0,0.4,0.1,0.6,0.3c0.1,0.2,0.2,0.5,0.2,1
		c0,0.4-0.1,0.7-0.2,0.9c-0.1,0.2-0.3,0.3-0.6,0.3c-0.3,0-0.5-0.1-0.6-0.3C223.2,65.6,223.1,65.3,223.1,64.9 M224.6,83.8h-1.3V69
		h1.3V83.8z"/>
	<path class="st3" d="M237.7,76.4c0,2.5-0.4,4.4-1.2,5.7c-0.8,1.3-1.9,2-3.4,2c-1.4,0-2.6-0.7-3.3-2c-0.8-1.3-1.2-3.2-1.2-5.7
		c0-5.1,1.5-7.7,4.5-7.7c1.4,0,2.5,0.7,3.3,2C237.3,72.1,237.7,73.9,237.7,76.4 M230,76.4c0,2.1,0.3,3.8,0.8,4.9
		c0.5,1.1,1.3,1.6,2.4,1.6c2.1,0,3.2-2.2,3.2-6.5c0-4.3-1.1-6.4-3.2-6.4c-1.1,0-1.9,0.5-2.4,1.6C230.2,72.6,230,74.2,230,76.4"/>
	<path class="st3" d="M248.3,83.8V73.6c0-2.5-0.7-3.7-2.2-3.7c-1.1,0-1.9,0.5-2.4,1.4c-0.5,0.9-0.8,2.4-0.8,4.4v8.1h-1.3V69h1.1
		l0.1,2.1h0.1c0.3-0.7,0.8-1.3,1.3-1.7s1.2-0.6,1.9-0.6c1.1,0,2,0.4,2.6,1.2c0.6,0.8,0.9,2,0.9,3.7v10.3H248.3z"/>
	<path class="st3" d="M260,83.8l-0.2-2.1h-0.1c-0.7,1.6-1.8,2.4-3.2,2.4c-1,0-1.7-0.4-2.3-1.2c-0.6-0.8-0.9-1.8-0.9-3.1
		c0-1.4,0.4-2.5,1.3-3.4c0.8-0.8,2-1.3,3.6-1.3l1.6-0.1v-1.2c0-1.4-0.2-2.4-0.5-3c-0.3-0.6-0.9-1-1.7-1c-0.8,0-1.7,0.3-2.6,0.8
		l-0.6-1c1-0.6,2.1-1,3.2-1c1.2,0,2.1,0.4,2.6,1.2c0.5,0.8,0.8,2.1,0.8,3.9v10.1H260z M256.8,83c0.9,0,1.7-0.5,2.2-1.4
		c0.5-0.9,0.8-2.2,0.8-3.9v-1.5l-1.5,0.1c-1.2,0.1-2.1,0.4-2.7,1c-0.6,0.6-0.9,1.5-0.9,2.6c0,1.1,0.2,1.9,0.6,2.4
		C255.6,82.7,256.1,83,256.8,83"/>
	<rect x="265.6" y="62.6" class="st3" width="1.3" height="21.3"/>
</g>
</svg>
