<svg xmlns="http://www.w3.org/2000/svg" xmlns:xlink="http://www.w3.org/1999/xlink" viewBox="0 0 21.284 17.286"><path d="M65.084,22.91a8.7,8.7,0,0,1-2.512.675,4.236,4.236,0,0,0,1.918-2.4,8.562,8.562,0,0,1-2.769,1.053,4.364,4.364,0,0,0-7.549,2.984,4.84,4.84,0,0,0,.108,1,12.155,12.155,0,0,1-5.017-1.344,12.367,12.367,0,0,1-3.977-3.221,4.372,4.372,0,0,0-.067,4.281,4.357,4.357,0,0,0,1.418,1.553,4.327,4.327,0,0,1-1.972-.554v.054a4.215,4.215,0,0,0,.993,2.775,4.29,4.29,0,0,0,2.505,1.506,4.516,4.516,0,0,1-1.148.149,5.559,5.559,0,0,1-.824-.067,4.372,4.372,0,0,0,4.079,3.025,8.541,8.541,0,0,1-5.415,1.863,9.31,9.31,0,0,1-1.053-.054,12.114,12.114,0,0,0,6.7,1.958,12.75,12.75,0,0,0,4.362-.736,11.088,11.088,0,0,0,3.484-1.972,13.188,13.188,0,0,0,2.492-2.843,12.67,12.67,0,0,0,1.56-3.356,12.393,12.393,0,0,0,.513-3.5q0-.378-.014-.567A9.134,9.134,0,0,0,65.084,22.91Z" transform="translate(-43.8 -20.857)"/></svg>