<svg xmlns="http://www.w3.org/2000/svg" width="50" height="44.444" viewBox="0 0 50 44.444">
  <g id="Groupe_1115" data-name="Groupe 1115" transform="translate(-670 -974)">
    <rect id="Rectangle_78" data-name="Rectangle 78" width="50" height="44.444" transform="translate(670 974)" fill="#1da1f2"/>
    <g id="Groupe_42" data-name="Groupe 42" transform="translate(681.525 985.54)">
      <path id="twitter16" d="M69.923,23.376a10.68,10.68,0,0,1-3.083.829,5.2,5.2,0,0,0,2.354-2.95,10.508,10.508,0,0,1-3.4,1.293,5.356,5.356,0,0,0-9.266,3.663,5.941,5.941,0,0,0,.133,1.227A14.918,14.918,0,0,1,50.5,25.788a15.178,15.178,0,0,1-4.881-3.953,5.366,5.366,0,0,0-.083,5.254A5.348,5.348,0,0,0,47.281,29a5.311,5.311,0,0,1-2.42-.68v.066a5.173,5.173,0,0,0,1.218,3.406,5.266,5.266,0,0,0,3.075,1.848,5.543,5.543,0,0,1-1.409.182,6.822,6.822,0,0,1-1.011-.083,5.366,5.366,0,0,0,5.006,3.713,10.483,10.483,0,0,1-6.647,2.287A11.425,11.425,0,0,1,43.8,39.67a14.868,14.868,0,0,0,8.221,2.4,15.648,15.648,0,0,0,5.353-.9,13.609,13.609,0,0,0,4.277-2.42,16.186,16.186,0,0,0,3.058-3.489,15.55,15.55,0,0,0,1.914-4.119,15.21,15.21,0,0,0,.63-4.3q0-.464-.017-.7A11.211,11.211,0,0,0,69.923,23.376Z" transform="translate(-43.8 -20.857)" fill="#fff"/>
    </g>
  </g>
</svg>
