<svg xmlns="http://www.w3.org/2000/svg" width="36.203" height="28.963" viewBox="0 0 36.203 28.963"><path d="M2.715,27.152a.905.905,0,0,1-.905-.905V23.894A5.8,5.8,0,0,1,7.6,18.1c1.109,0,2.212.905,5.068.905s3.96-.905,5.068-.905c.153,0,.3.034.447.045a4.494,4.494,0,0,1,.741-1.737,7.486,7.486,0,0,0-1.194-.119c-1.623,0-2.4.905-5.068.905s-3.439-.905-5.068-.905a7.6,7.6,0,0,0-7.6,7.6v2.353a2.715,2.715,0,0,0,2.715,2.715H19.029a4.432,4.432,0,0,1-.837-1.81Zm9.956-12.671A7.241,7.241,0,1,0,5.43,7.241,7.241,7.241,0,0,0,12.671,14.481Zm0-12.671a5.43,5.43,0,1,1-5.43,5.43,5.43,5.43,0,0,1,5.43-5.43ZM28.057,20.817a1.81,1.81,0,1,0,1.81,1.81A1.81,1.81,0,0,0,28.057,20.817Zm5.43-4.525h-.905V13.576a4.525,4.525,0,1,0-9.051,0v2.715h-.905a2.715,2.715,0,0,0-2.715,2.715v7.241a2.715,2.715,0,0,0,2.715,2.715H33.488A2.715,2.715,0,0,0,36.2,26.247V19.007A2.715,2.715,0,0,0,33.488,16.291Zm-8.146-2.715a2.715,2.715,0,0,1,5.43,0v2.715h-5.43Zm9.051,12.671a.905.905,0,0,1-.905.905H22.627a.905.905,0,0,1-.905-.905V19.007a.905.905,0,0,1,.905-.905H33.488a.905.905,0,0,1,.905.905Z" fill="#37b0b0"/></svg>