<svg xmlns="http://www.w3.org/2000/svg" width="100" height="80" viewBox="0 0 100 80"><path d="M92.5,45H70V32.623A7.58,7.58,0,0,1,77.372,25,7.5,7.5,0,0,1,85,32.5v1.25A1.25,1.25,0,0,0,86.25,35h2.5A1.25,1.25,0,0,0,90,33.75V32.656A12.5,12.5,0,1,0,65,32.5V45H62.5A7.5,7.5,0,0,0,55,52.5v20A7.5,7.5,0,0,0,62.5,80h30a7.5,7.5,0,0,0,7.5-7.5v-20A7.5,7.5,0,0,0,92.5,45ZM95,72.5A2.5,2.5,0,0,1,92.5,75h-30A2.5,2.5,0,0,1,60,72.5v-20A2.5,2.5,0,0,1,62.5,50h30A2.5,2.5,0,0,1,95,52.5ZM35,40A20,20,0,1,0,15,20,20,20,0,0,0,35,40ZM35,5A15,15,0,1,1,20,20,15,15,0,0,1,35,5ZM77.5,57.5a5,5,0,1,0,5,5A5,5,0,0,0,77.5,57.5ZM7.5,75A2.5,2.5,0,0,1,5,72.5V66A16.011,16.011,0,0,1,21,50c3.063,0,6.109,2.5,14,2.5S45.937,50,49,50c.422,0,.828.094,1.234.125a12.4,12.4,0,0,1,2.047-4.8,20.658,20.658,0,0,0-3.3-.328c-4.484,0-6.641,2.5-14,2.5s-9.5-2.5-14-2.5A21,21,0,0,0,0,66v6.5A7.5,7.5,0,0,0,7.5,80H52.562a12.245,12.245,0,0,1-2.312-5Z" fill="#37b0b0"/></svg>