<svg xmlns="http://www.w3.org/2000/svg" width="33.929" height="22.624" viewBox="0 0 33.929 22.624"><path d="M32.044,65.885a1.887,1.887,0,0,0-1.072.336l-6.463,4.118V66.816A2.941,2.941,0,0,0,21.457,64H3.052A2.941,2.941,0,0,0,0,66.816V83.807a2.941,2.941,0,0,0,3.052,2.816H21.457a2.941,2.941,0,0,0,3.052-2.816V80.284L30.966,84.4a1.889,1.889,0,0,0,2.963-1.52V67.741A1.865,1.865,0,0,0,32.044,65.885Zm-9.421,5.656V83.807a1.083,1.083,0,0,1-1.167.931H3.052a1.083,1.083,0,0,1-1.167-.931V66.816a1.083,1.083,0,0,1,1.167-.931H21.457a1.083,1.083,0,0,1,1.167.931v4.725ZM32.05,82.882l-.071-.077-7.47-4.76V72.572l7.541-4.8ZM17.439,74.369H13.2V70.127a.473.473,0,0,0-.471-.471h-.943a.473.473,0,0,0-.471.471v4.242H7.07a.473.473,0,0,0-.471.471v.943a.473.473,0,0,0,.471.471h4.242V80.5a.473.473,0,0,0,.471.471h.943A.473.473,0,0,0,13.2,80.5V76.254h4.242a.473.473,0,0,0,.471-.471V74.84A.473.473,0,0,0,17.439,74.369Z" transform="translate(0 -64)" fill="#99066e"/></svg>